# xmcd
#
# Track frame offsets: 
#        150
#        17345
#        34192
#        55435
#        72010
#        87722
#        108783
#        121534
#        138430
#        156392
#
# Disc length: 2316 seconds
#
# Revision: 0
# Processed by: cddbd v1.5.2PL0 Copyright (c) Steve Scherf et al.
# Submitted via: ExactAudioCopy v0.95b4
#
DISCID=7d090a0a
DTITLE=Ryan James - Dream of Dakota
DYEAR=2002
DGENRE=Country
TTITLE0=Cutest Little Girl I Know
TTITLE1=Dream of Dakota
TTITLE2=Home is Where the Heart Is
TTITLE3=Learning to Let Go
TTITLE4=hangin' Around With You
TTITLE5=Soldier of Life
TTITLE6=Sweet Karen Ann
TTITLE7=My Love for You is Real
TTITLE8=When I Look Into Your Eyes
TTITLE9=Will You Be Mine
EXTD=
EXTT0=
EXTT1=
EXTT2=
EXTT3=
EXTT4=
EXTT5=
EXTT6=
EXTT7=
EXTT8=
EXTT9=
PLAYORDER=
